<svg xmlns="http://www.w3.org/2000/svg" width="163" height="18" fill="none" viewBox="0 0 163 18">
  <g clip-path="url(#a)">
    <path fill="currentColor" d="M60.315 18H48.594l1.98-2.336V2.534L48.594.197h11.72v3.54L54.22 1.532v6.12h4.545v3.181l-4.545-1.78v7.612l6.096-2.225V18Zm8.411-18h8.388c-.029-.003.025.017 0 0 .78 0 1.657.136 2.023.197.498.085.981.234 1.453.418.483.188.948.414 1.388.686.72.445 1.38.963 1.953 1.593a9.57 9.57 0 0 1 1.426 2.035c.318.616.554 1.263.708 1.937.079.35.134.705.191 1.059.026.158.027.32.043.478.003.034.025.068.038.101v.572s-.02.003-.022.006c-.127.307-.22.368-.552.368h-7.329c.022.025.033.04.046.053l3.184 3.182c1.4 1.397 2.797 2.794 4.195 4.194.144.144.277.3.412.452.026.03.042.07.063.105v.157c-.008.01-.017.019-.022.03-.102.283-.227.372-.529.372h-16.9l-.111-.001a.472.472 0 0 1-.453-.462V.516c0-.203.081-.36.257-.461.046-.027.098-.04.147-.058l.003.003Zm9.056.925v.251c0 2.436 0 4.873.003 7.31 0 .02.041.057.065.057 2.477.004 4.954.002 7.431.002h.138c-.166-2.119-.967-3.932-2.507-5.4-1.434-1.365-3.145-2.095-5.129-2.22l-.001.001Zm-.904 8.527h-.08l-3.03.001c-.084 0-.2-.028-.244.014-.043.041-.013.159-.013.242v7.383h3.205c.162 0 .162 0 .162-.158V9.45v.002Zm-4.288 7.641a.085.085 0 0 0 .005-.023c0-.93-.004-1.859-.004-2.79 0-1.566-.001-3.132.004-4.7 0-.111-.029-.13-.133-.13-1.06.005-2.117.002-3.175.003-.02 0-.054.035-.054.054-.004 2.483 0 4.967-.007 7.45 0 .122.034.138.143.136 1.071-.004 2.141-.003 3.218-.003l.003.003ZM69.233 1.571v.147c0 2.228 0 4.456-.004 6.683 0 .125.029.15.152.149 2.209-.005 4.417-.003 6.623-.003h.21l-6.98-6.977Zm8.54 8.58c.002.056.01.139.01.222v6.625c0 .075.016.095.094.095l6.806-.001h.084l-.03.018a26899.24 26899.24 0 0 1-6.962-6.96l-.001.002Zm-7.91-9.24 7.012 7.01V.91h-7.012Zm65.678-.88a.46.46 0 0 0-.499.1l-7.856 7.835c-.53-4.465-4.37-7.935-9.009-7.922a.453.453 0 0 0-.456.456l.047 17.047s.003.014.003.022c0 .022.007.043.01.065.005.023.009.045.017.067.002.006.002.014.005.02.005.013.016.024.022.036.011.02.022.041.037.061a.271.271 0 0 0 .044.047.485.485 0 0 0 .049.044c.019.014.04.025.06.036.013.006.024.016.037.022.004.002.011 0 .017.003a.454.454 0 0 0 .158.032l17.189-.047a.454.454 0 0 0 .455-.456L135.824.45a.452.452 0 0 0-.283-.418m-.629 1.516.019 6.974-7.032.019 7.013-6.993Zm.032 11.235-7.68.02-.01-3.354 7.68-.02.01 3.354ZM118.68 16.45l-.019-6.975 7.033-.019-3.506 3.497-3.506 3.497h-.002ZM118.636.963c4.123.216 7.447 3.494 7.688 7.582l-7.666.02-.021-7.604-.001.002Zm4.199 12.629 3.506-3.497.019 6.975-7.033.019 3.506-3.497h.002Zm4.432.12 7.68-.02.009 3.354-7.68.02-.009-3.353ZM15.882 12.605c-.066 1.576-.778 2.868-2.136 3.88-1.357 1.01-2.967 1.517-4.825 1.517-2.63 0-4.775-.816-6.433-2.45C.83 13.92 0 11.835 0 9.299 0 7.84.242 6.514.728 5.321s1.14-2.17 1.96-2.933A8.893 8.893 0 0 1 5.477.623 8.753 8.753 0 0 1 8.744.002c1.206 0 2.325.178 3.355.534 1.03.357 1.91.948 2.639 1.777.728.828 1.117 1.823 1.168 2.983l-5.302.647c.066-1.16-.125-2.042-.578-2.648-.453-.605-1.081-.907-1.885-.907-.904 0-1.651.415-2.237 1.243-.587.829-.88 1.923-.88 3.282 0 2.172.578 3.874 1.735 5.11 1.155 1.236 2.773 1.852 4.85 1.852 1.674 0 3.099-.422 4.272-1.268l.001-.002Zm2.038 2.705V2.886l2.719-2.69h7.624l2.72 2.69V15.31L28.263 18H20.64l-2.72-2.69Zm4.506-1.623h4.052V4.508h-4.052v9.18Zm127.927-5.505L145.878.196h4.313l3.049 5.621c.486.89 1.914.89 2.399 0l3.049-5.621h4.313l-4.474 7.986a1.84 1.84 0 0 0 0 1.83l4.474 7.986h-4.313l-3.049-5.621c-.485-.891-1.913-.891-2.399 0l-3.049 5.621h-4.313l4.475-7.986a1.845 1.845 0 0 0 0-1.83ZM33.897 18V.196h8.992v2.223h2.248v2.236h2.26v8.896h-2.26V4.657h-2.248V2.42h-6.744v13.355h6.744V18h-8.992Zm8.992-2.224v-2.223h2.248v2.223h-2.248Zm50.164-1.667h21.056v3.89H89.082V.197h25.027v3.89H93.053v3.048h21.056v3.891H93.053v3.084Zm50.366 3.634H144V18h-5.718v-.257h.581c.534 0 .97-.43.97-.958V1.412a.966.966 0 0 0-.97-.958h-.581V.197H144v.257h-.581a.967.967 0 0 0-.971.958v15.371c0 .528.436.959.971.959v.001Z"/>
  </g>
  <defs>
    <clipPath id="a">
      <path fill="#fff" d="M0 0h163v18H0z"/>
    </clipPath>
  </defs>
</svg>
