<svg width="256" height="256" viewBox="0 0 256 256" fill="none" xmlns="http://www.w3.org/2000/svg">
<g clip-path="url(#clip0_12029_299)">
<path d="M41.7794 34.0048C88.0645 34.5578 126.352 68.7315 133.43 113.172L210.65 35.9501V35.9511C212.498 34.1 215.246 33.5265 217.661 34.4159L217.894 34.5067L217.898 34.5087C220.382 35.538 222 37.9575 222 40.6483V215.351C222 219.024 219.022 222.002 215.35 222.002H40.6514C39.8548 222.002 39.1399 221.832 38.5274 221.62C38.4206 221.599 38.2734 221.564 38.1075 221.495L38.1006 221.493V221.492C37.8364 221.382 37.6361 221.247 37.5626 221.197C37.5252 221.172 37.5147 221.165 37.5079 221.16C37.2998 221.05 36.9985 220.887 36.6973 220.664L36.4678 220.48C36.2603 220.305 36.0912 220.135 35.9688 220.012L35.9698 220.011C35.8149 219.857 35.5726 219.617 35.3477 219.317L35.3438 219.311C35.1127 219.001 34.9442 218.686 34.834 218.478C34.8312 218.474 34.8276 218.47 34.8233 218.464C34.8183 218.456 34.8116 218.447 34.8047 218.436C34.7577 218.367 34.6169 218.162 34.5049 217.89L34.501 217.879C34.4479 217.747 34.4147 217.632 34.3946 217.549C34.3867 217.516 34.3814 217.485 34.376 217.459C34.2658 217.118 34.2049 216.8 34.17 216.623L34.168 216.615C34.1402 216.471 34.0763 216.162 34.0479 215.816C34.042 215.786 34.0337 215.748 34.0274 215.706C34.0141 215.618 34.0001 215.496 34.0001 215.351V40.6483C34.0001 38.8852 34.7007 37.1922 35.9512 35.9452L36.1895 35.7187C37.4077 34.6178 38.9945 33.998 40.6514 33.998L41.7794 34.0048ZM34.0372 215.698C34.0377 215.707 34.0404 215.716 34.0411 215.725C34.0405 215.715 34.0396 215.706 34.0391 215.697L34.0372 215.698ZM134.649 208.702H208.703V178.325H134.649V208.702ZM89.0274 176.38L56.7042 208.702H121.348V144.059L89.0274 176.38ZM47.3028 199.295L79.626 166.975L111.946 134.654H47.3028V199.295ZM134.646 165.022H208.698V134.646H134.646V165.022ZM47.3028 121.347H121.075C117.865 82.1484 86.5023 50.7846 47.3028 47.5712V121.347ZM144.055 121.344H208.698V56.7021L144.055 121.344Z" fill="#E7B136" stroke="#E7B136" stroke-width="4"/>
</g>
<defs>
<clipPath id="clip0_12029_299">
<rect width="256" height="256" rx="24" fill="white"/>
</clipPath>
</defs>
</svg>
