<svg width="256" height="256" viewBox="0 0 256 256" fill="none" xmlns="http://www.w3.org/2000/svg">
<mask id="mask0_12006_141" style="mask-type:alpha" maskUnits="userSpaceOnUse" x="27" y="27" width="202" height="203">
<path d="M224.884 28.3896C223 27.615 220.82 28.0371 219.375 29.4853L132.345 116.517C126.623 66.778 84.31 28.0065 33.0554 28C31.7147 28 30.4313 28.5348 29.4814 29.482C28.5323 30.4285 28 31.7145 28 33.0551V222.949C28 223.032 28.0313 223.107 28.0365 223.189C28.0469 223.433 28.0964 223.668 28.1433 223.911C28.1941 224.168 28.2423 224.418 28.3309 224.661C28.357 224.733 28.3564 224.809 28.3857 224.882C28.4463 225.029 28.5531 225.142 28.6248 225.281C28.7485 225.514 28.8717 225.743 29.03 225.956C29.1753 226.149 29.3407 226.317 29.5108 226.486C29.684 226.661 29.8547 226.828 30.0528 226.977C30.2619 227.132 30.4834 227.252 30.7127 227.373C30.8541 227.448 30.97 227.556 31.1199 227.618C31.1805 227.643 31.245 227.633 31.3062 227.656C31.8606 227.862 32.441 228.004 33.0554 228.004H222.945C225.736 228.004 228 225.741 228 222.949V33.0551C228 31.0096 226.771 29.1719 224.884 28.3896ZM217.89 45.2572V122.941H140.203L217.89 45.2572ZM217.89 170.418H133.049V133.053H217.89V170.418ZM38.1114 210.745V133.061H115.799L76.9563 171.903L38.1114 210.745ZM38.1114 38.251C83.658 40.789 120.268 77.399 122.802 122.944H38.1114V38.251ZM84.1016 179.052L122.943 140.211V217.895H45.256L84.1016 179.052ZM133.054 180.53H217.895V217.895H133.054V180.53Z" fill="#E7B136" stroke="#E7B136" stroke-width="2"/>
</mask>
<g mask="url(#mask0_12006_141)">
<rect x="-1264.08" y="-748.751" width="2465.26" height="1502.42" fill="#E7B136" stroke="#E7B136" stroke-width="3"/>
</g>
</svg>
