<svg width="109" height="28" viewBox="0 0 109 28" fill="none" xmlns="http://www.w3.org/2000/svg" shape-rendering="optimizeQuality">
<path d="M14.7663 6.52922C14.625 6.47113 14.4614 6.50278 14.353 6.61139L7.82587 13.1386C7.39669 9.40829 4.22324 6.50049 0.379152 6.5C0.278599 6.5 0.182346 6.54011 0.111108 6.61115C0.0399193 6.68214 0 6.77858 0 6.87913V21.1208C0 21.1271 0.00234526 21.1327 0.00273614 21.1389C0.00351789 21.1571 0.00723131 21.1748 0.0107492 21.193C0.0145603 21.2122 0.0181756 21.231 0.0248206 21.2492C0.0267749 21.2547 0.0267268 21.2604 0.0289255 21.2658C0.0334695 21.2768 0.0414827 21.2853 0.0468573 21.2957C0.0561406 21.3133 0.0653756 21.3304 0.0772485 21.3463C0.0881442 21.3609 0.100553 21.3734 0.113306 21.3861C0.126303 21.3992 0.139104 21.4118 0.153957 21.423C0.169641 21.4345 0.186254 21.4436 0.203452 21.4527C0.214055 21.4583 0.222752 21.4664 0.23399 21.471C0.238533 21.4729 0.243371 21.4722 0.247964 21.4738C0.289544 21.4893 0.333078 21.5 0.379152 21.5H14.6208C14.8302 21.5 15 21.3302 15 21.1208V6.87913C15 6.72572 14.9077 6.5876 14.766 6.52892M14.2417 7.79426V13.6204H8.41517L14.2417 7.79426ZM14.2417 17.1811H7.87869V14.3788H14.2417V17.1811ZM0.758352 20.2055V14.3794H6.58488L3.67171 17.2925L0.758352 20.2055ZM0.758352 7.26881C4.17433 7.45915 6.92006 10.2048 7.11012 13.6207H0.758352V7.26881ZM4.20761 17.8287L7.12073 14.9156V20.7418H1.2942L4.20761 17.8287ZM7.87903 17.9395H14.242V20.7418H7.87903V17.9395Z" fill="currentColor"/>
<path d="M96.976 11.501C95.254 11.501 94.162 12.719 94.015 15.239H99.916C99.853 12.803 98.929 11.501 96.976 11.501ZM101.785 18.284C101.386 20.363 99.685 21.665 97.291 21.665C94.351 21.665 92.146 19.586 92.146 16.121C92.146 12.635 94.54 10.703 96.976 10.703C99.58 10.703 101.827 12.446 101.827 15.743V16.079H93.9939V16.121C93.9939 18.872 95.17 20.804 97.459 20.804C99.244 20.804 100.483 19.775 100.798 18.284H101.785Z" fill="currentColor"/>
<path d="M82.7818 16.562V21.455H81.1438V10.934H82.7398V13.097C83.2648 11.711 84.5248 10.703 86.2048 10.703C88.3258 10.703 89.9848 11.774 89.9848 14.945V21.455H88.3468V14.819C88.3468 12.467 87.3598 11.585 85.9108 11.585C84.1678 11.585 82.7818 13.307 82.7818 16.562Z" fill="currentColor"/>
<path d="M76.0445 15.365V21.455H74.4065V10.934H76.0025V13.034C76.1285 12.677 76.2965 12.32 76.5485 12.005C77.1365 11.27 77.9135 10.892 78.9005 10.892C79.0895 10.892 79.2995 10.913 79.4675 10.934V12.341C79.1735 12.299 78.8375 12.257 78.4385 12.257C77.2835 12.257 76.0445 12.887 76.0445 15.365Z" fill="currentColor"/>
<path d="M67.2076 11.501C65.4856 11.501 64.3936 12.719 64.2466 15.239H70.1476C70.0846 12.803 69.1606 11.501 67.2076 11.501ZM72.0166 18.284C71.6176 20.363 69.9166 21.665 67.5226 21.665C64.5826 21.665 62.3776 19.586 62.3776 16.121C62.3776 12.635 64.7716 10.703 67.2076 10.703C69.8116 10.703 72.0586 12.446 72.0586 15.743V16.079H64.2256V16.121C64.2256 18.872 65.4016 20.804 67.6906 20.804C69.4756 20.804 70.7146 19.775 71.0296 18.284H72.0166Z" fill="currentColor"/>
<path d="M55.0618 20.783C56.9938 20.783 58.4218 18.872 58.4218 16.121C58.4218 13.433 56.9308 11.585 55.0618 11.585C52.9408 11.585 51.8488 13.286 51.8488 16.121C51.8488 18.977 52.9828 20.783 55.0618 20.783ZM58.4008 21.455V19.355C57.8128 20.615 56.5738 21.665 54.7468 21.665C52.0378 21.665 50.0218 19.67 50.0218 16.121C50.0218 12.656 52.0588 10.703 54.7258 10.703C56.5528 10.703 57.7498 11.669 58.3588 12.845V6.33496H59.9968V21.455H58.4008Z" fill="currentColor"/>
<path d="M43.222 21.665C40.261 21.665 37.993 19.502 37.993 16.121C37.993 12.866 40.24 10.682 43.222 10.682C46.204 10.682 48.451 12.866 48.451 16.121C48.451 19.481 46.162 21.665 43.222 21.665ZM43.222 20.867C45.532 20.867 46.603 18.83 46.603 16.121C46.603 13.475 45.532 11.48 43.222 11.48C40.891 11.48 39.841 13.475 39.841 16.121C39.841 18.83 40.912 20.867 43.222 20.867Z" fill="currentColor"/>
<path d="M26.8461 21.455L21.0921 7.721V21.455H20.0001V6.755H22.5411L27.7911 19.25L33.0411 6.755H35.4351V21.455H33.6921V7.80501L27.9801 21.455H26.8461Z" fill="currentColor"/>
<path d="M103.388 11.232C102.646 11.232 102.037 10.609 102.037 9.867C102.037 9.111 102.646 8.516 103.388 8.516C104.123 8.516 104.746 9.111 104.746 9.867C104.746 10.609 104.123 11.232 103.388 11.232ZM103.388 11.029C104.018 11.029 104.515 10.49 104.515 9.867C104.515 9.258 104.018 8.719 103.388 8.719C102.758 8.719 102.268 9.258 102.268 9.867C102.268 10.49 102.758 11.029 103.388 11.029ZM103.15 9.307V9.825H103.283C103.542 9.825 103.64 9.706 103.64 9.552C103.64 9.412 103.549 9.307 103.332 9.307H103.15ZM103.29 9.993H103.15V10.588H102.87V9.139H103.339C103.717 9.139 103.941 9.293 103.941 9.545C103.941 9.762 103.766 9.874 103.556 9.895V9.902C103.724 9.916 103.857 9.972 103.913 10.196L104.011 10.588H103.717L103.619 10.189C103.57 10.021 103.493 9.993 103.29 9.993Z" fill="currentColor"/>
</svg>
