<svg xmlns="http://www.w3.org/2000/svg" width="93" height="20" fill="none" viewBox="0 0 93 20">
  <path fill="currentColor" d="M8.914 15.768 2.907 2.041H0v16.15h1.25V3.1l6.583 15.09h1.298l6.535-14.997V18.19h1.994V2.04h-2.74L8.914 15.768Zm21.699-7.763a5.691 5.691 0 0 0-1.898-1.212 6.401 6.401 0 0 0-2.379-.438c-.85 0-1.642.146-2.379.438a5.686 5.686 0 0 0-1.898 1.212 5.529 5.529 0 0 0-1.25 1.88c-.304.738-.456 1.553-.456 2.445 0 .923.152 1.762.457 2.515a5.636 5.636 0 0 0 1.261 1.927c.537.53 1.169.938 1.898 1.222a6.445 6.445 0 0 0 2.367.427c.833 0 1.618-.146 2.355-.438a5.6 5.6 0 0 0 1.898-1.223 5.747 5.747 0 0 0 1.261-1.915c.313-.753.469-1.592.469-2.515 0-.892-.153-1.707-.457-2.445a5.538 5.538 0 0 0-1.25-1.88Zm-.637 6.39a4.965 4.965 0 0 1-.709 1.661 3.39 3.39 0 0 1-1.213 1.096c-.489.262-1.061.392-1.718.392s-1.23-.13-1.718-.392a3.381 3.381 0 0 1-1.213-1.096 4.945 4.945 0 0 1-.709-1.66 8.85 8.85 0 0 1-.229-2.066c0-.722.076-1.395.23-2.018a4.701 4.701 0 0 1 .708-1.615c.32-.454.724-.811 1.213-1.073.489-.262 1.061-.392 1.718-.392s1.23.13 1.718.392c.489.262.893.62 1.213 1.073.32.453.557.992.709 1.615a8.48 8.48 0 0 1 .229 2.018c0 .739-.077 1.427-.229 2.065Zm13.556-5.664c-.352-.646-.873-1.2-1.561-1.661-.69-.461-1.554-.692-2.596-.692a5.74 5.74 0 0 0-2.126.392 4.71 4.71 0 0 0-1.718 1.154c-.48.507-.857 1.13-1.13 1.869-.272.738-.407 1.584-.407 2.537 0 .97.135 1.834.408 2.596.272.761.649 1.4 1.13 1.915.48.515 1.053.908 1.717 1.176a5.68 5.68 0 0 0 2.15.404c1.042 0 1.915-.25 2.62-.75.704-.5 1.225-1.096 1.561-1.788v2.308h1.827V1.579h-1.875v7.152Zm-1.02 7.29c-.73.954-1.647 1.431-2.752 1.431-1.185 0-2.094-.465-2.727-1.396-.633-.93-.95-2.172-.95-3.726 0-1.553.313-2.772.938-3.656.625-.885 1.538-1.327 2.74-1.327 1.056 0 1.961.461 2.714 1.384.753.923 1.13 2.123 1.13 3.6 0 1.507-.365 2.737-1.094 3.69Zm14.776-8.236a5.258 5.258 0 0 0-1.779-1.05 6.286 6.286 0 0 0-2.114-.357c-.689 0-1.366.13-2.03.392a5.397 5.397 0 0 0-1.778 1.142c-.52.5-.937 1.123-1.25 1.869-.312.746-.468 1.596-.468 2.55 0 .953.148 1.807.444 2.56a5.462 5.462 0 0 0 1.238 1.915 5.367 5.367 0 0 0 1.874 1.2 6.453 6.453 0 0 0 2.33.415c1.362 0 2.503-.334 3.424-1.003.921-.67 1.494-1.573 1.718-2.711h-1.129a3.313 3.313 0 0 1-1.285 1.995c-.682.516-1.526.773-2.535.773-1.298 0-2.283-.48-2.955-1.442-.674-.96-1.01-2.195-1.01-3.703v-.046h8.963v-.369c0-.907-.149-1.707-.445-2.4a4.872 4.872 0 0 0-1.213-1.73Zm-7.28 3.576c.08-1.384.42-2.414 1.02-3.091.601-.677 1.39-1.015 2.367-1.015 1.105 0 1.934.35 2.487 1.05.553.7.845 1.718.877 3.056h-6.752Zm16.544-4.775c-.561 0-1.065.104-1.514.311a3.386 3.386 0 0 0-1.177.911c-.144.17-.269.35-.373.543a3.43 3.43 0 0 0-.252.588V6.632H61.41V18.19h1.874V11.5c0-.677.08-1.238.24-1.684.16-.446.373-.796.637-1.05s.557-.43.877-.53c.32-.1.649-.15.985-.15.224 0 .437.01.637.034.2.023.38.042.54.058V6.632a3.616 3.616 0 0 0-.312-.035 4.975 4.975 0 0 0-.336-.011Zm11.221.819c-.84-.684-1.862-1.027-3.064-1.027-.96 0-1.786.25-2.475.75a4.263 4.263 0 0 0-1.489 1.88V6.632H68.92V18.19h1.874v-5.375c0-1.784.348-3.142 1.045-4.072.697-.93 1.542-1.396 2.535-1.396.817 0 1.486.27 2.006.807.52.539.781 1.454.781 2.746v7.29h1.874v-7.152c0-1.738-.42-2.949-1.261-3.633Zm14.608 4.879v-.369c0-.907-.148-1.707-.445-2.4a4.876 4.876 0 0 0-1.213-1.73 5.261 5.261 0 0 0-1.778-1.05 6.29 6.29 0 0 0-2.114-.357c-.689 0-1.366.13-2.03.392a5.398 5.398 0 0 0-1.779 1.142c-.52.5-.937 1.123-1.249 1.869-.313.746-.469 1.596-.469 2.55 0 .953.148 1.807.445 2.56a5.455 5.455 0 0 0 1.237 1.915 5.366 5.366 0 0 0 1.874 1.2 6.446 6.446 0 0 0 2.331.415c1.361 0 2.503-.334 3.424-1.003.921-.67 1.493-1.573 1.718-2.711h-1.13a3.313 3.313 0 0 1-1.285 1.995c-.681.516-1.526.773-2.535.773-1.297 0-2.282-.48-2.955-1.442-.673-.96-1.01-2.195-1.01-3.703v-.046h8.963ZM84.464 8.27c.6-.677 1.39-1.016 2.367-1.016 1.105 0 1.934.35 2.486 1.05.553.7.845 1.719.878 3.057h-6.752c.08-1.384.42-2.414 1.021-3.091Z"/>
</svg>
