<svg width="203" height="28" viewBox="0 0 203 28" fill="none" xmlns="http://www.w3.org/2000/svg">
<path d="M14.7663 6.52922C14.625 6.47113 14.4614 6.50278 14.353 6.61139L7.82587 13.1386C7.39669 9.40829 4.22324 6.50049 0.379152 6.5C0.278599 6.5 0.182346 6.54011 0.111108 6.61115C0.0399193 6.68214 0 6.77858 0 6.87913V21.1208C0 21.1271 0.00234526 21.1327 0.00273614 21.1389C0.00351789 21.1571 0.00723131 21.1748 0.0107492 21.193C0.0145603 21.2122 0.0181756 21.231 0.0248206 21.2492C0.0267749 21.2547 0.0267268 21.2604 0.0289255 21.2658C0.0334695 21.2768 0.0414827 21.2853 0.0468573 21.2957C0.0561406 21.3133 0.0653756 21.3304 0.0772485 21.3463C0.0881442 21.3609 0.100553 21.3734 0.113306 21.3861C0.126303 21.3992 0.139104 21.4118 0.153957 21.423C0.169641 21.4345 0.186254 21.4436 0.203452 21.4527C0.214055 21.4583 0.222752 21.4664 0.23399 21.471C0.238533 21.4729 0.243371 21.4722 0.247964 21.4738C0.289544 21.4893 0.333078 21.5 0.379152 21.5H14.6208C14.8302 21.5 15 21.3302 15 21.1208V6.87913C15 6.72572 14.9077 6.5876 14.766 6.52892M14.2417 7.79426V13.6204H8.41517L14.2417 7.79426ZM14.2417 17.1811H7.87869V14.3788H14.2417V17.1811ZM0.758352 20.2055V14.3794H6.58488L3.67171 17.2925L0.758352 20.2055ZM0.758352 7.26881C4.17433 7.45915 6.92006 10.2048 7.11012 13.6207H0.758352V7.26881ZM4.20761 17.8287L7.12073 14.9156V20.7418H1.2942L4.20761 17.8287ZM7.87903 17.9395H14.242V20.7418H7.87903V17.9395Z" fill="currentColor"/>
<path d="M96.976 11.501C95.254 11.501 94.162 12.719 94.015 15.239H99.916C99.853 12.803 98.929 11.501 96.976 11.501ZM101.785 18.284C101.386 20.363 99.685 21.665 97.291 21.665C94.351 21.665 92.146 19.586 92.146 16.121C92.146 12.635 94.54 10.703 96.976 10.703C99.58 10.703 101.827 12.446 101.827 15.743V16.079H93.9939V16.121C93.9939 18.872 95.17 20.804 97.459 20.804C99.244 20.804 100.483 19.775 100.798 18.284H101.785Z" fill="currentColor"/>
<path d="M82.7818 16.562V21.455H81.1438V10.934H82.7398V13.097C83.2648 11.711 84.5248 10.703 86.2048 10.703C88.3258 10.703 89.9848 11.774 89.9848 14.945V21.455H88.3468V14.819C88.3468 12.467 87.3598 11.585 85.9108 11.585C84.1678 11.585 82.7818 13.307 82.7818 16.562Z" fill="currentColor"/>
<path d="M76.0445 15.365V21.455H74.4065V10.934H76.0025V13.034C76.1285 12.677 76.2965 12.32 76.5485 12.005C77.1365 11.27 77.9135 10.892 78.9005 10.892C79.0895 10.892 79.2995 10.913 79.4675 10.934V12.341C79.1735 12.299 78.8375 12.257 78.4385 12.257C77.2835 12.257 76.0445 12.887 76.0445 15.365Z" fill="currentColor"/>
<path d="M67.2076 11.501C65.4856 11.501 64.3936 12.719 64.2466 15.239H70.1476C70.0846 12.803 69.1606 11.501 67.2076 11.501ZM72.0166 18.284C71.6176 20.363 69.9166 21.665 67.5226 21.665C64.5826 21.665 62.3776 19.586 62.3776 16.121C62.3776 12.635 64.7716 10.703 67.2076 10.703C69.8116 10.703 72.0586 12.446 72.0586 15.743V16.079H64.2256V16.121C64.2256 18.872 65.4016 20.804 67.6906 20.804C69.4756 20.804 70.7146 19.775 71.0296 18.284H72.0166Z" fill="currentColor"/>
<path d="M55.0618 20.783C56.9938 20.783 58.4218 18.872 58.4218 16.121C58.4218 13.433 56.9308 11.585 55.0618 11.585C52.9408 11.585 51.8488 13.286 51.8488 16.121C51.8488 18.977 52.9828 20.783 55.0618 20.783ZM58.4008 21.455V19.355C57.8128 20.615 56.5738 21.665 54.7468 21.665C52.0378 21.665 50.0218 19.67 50.0218 16.121C50.0218 12.656 52.0588 10.703 54.7258 10.703C56.5528 10.703 57.7498 11.669 58.3588 12.845V6.33499H59.9968V21.455H58.4008Z" fill="currentColor"/>
<path d="M43.222 21.665C40.261 21.665 37.993 19.502 37.993 16.121C37.993 12.866 40.24 10.682 43.222 10.682C46.204 10.682 48.451 12.866 48.451 16.121C48.451 19.481 46.162 21.665 43.222 21.665ZM43.222 20.867C45.532 20.867 46.603 18.83 46.603 16.121C46.603 13.475 45.532 11.48 43.222 11.48C40.891 11.48 39.841 13.475 39.841 16.121C39.841 18.83 40.912 20.867 43.222 20.867Z" fill="currentColor"/>
<path d="M26.8461 21.455L21.0921 7.72099V21.455H20.0001V6.75499H22.5411L27.7911 19.25L33.0411 6.75499H35.4351V21.455H33.6921V7.80499L27.9801 21.455H26.8461Z" fill="currentColor"/>
<path d="M103.388 11.232C102.646 11.232 102.037 10.609 102.037 9.867C102.037 9.111 102.646 8.516 103.388 8.516C104.123 8.516 104.746 9.111 104.746 9.867C104.746 10.609 104.123 11.232 103.388 11.232ZM103.388 11.029C104.018 11.029 104.515 10.49 104.515 9.867C104.515 9.258 104.018 8.719 103.388 8.719C102.758 8.719 102.268 9.258 102.268 9.867C102.268 10.49 102.758 11.029 103.388 11.029ZM103.15 9.307V9.825H103.283C103.542 9.825 103.64 9.706 103.64 9.552C103.64 9.412 103.549 9.307 103.332 9.307H103.15ZM103.29 9.993H103.15V10.588H102.87V9.139H103.339C103.717 9.139 103.941 9.293 103.941 9.545C103.941 9.762 103.766 9.874 103.556 9.895V9.902C103.724 9.916 103.857 9.972 103.913 10.196L104.011 10.588H103.717L103.619 10.189C103.57 10.021 103.493 9.993 103.29 9.993Z" fill="currentColor"/>
<path d="M115.193 21H110.932V6.45455H115.449C116.836 6.45455 118.022 6.74337 119.007 7.32102C119.997 7.89867 120.754 8.72727 121.28 9.80682C121.805 10.8864 122.068 12.1813 122.068 13.6918C122.068 15.2164 121.798 16.5256 121.259 17.6193C120.723 18.7083 119.942 19.544 118.915 20.1264C117.892 20.7088 116.652 21 115.193 21ZM112.26 19.8068H115.115C116.365 19.8068 117.411 19.5606 118.254 19.0682C119.097 18.5758 119.729 17.8726 120.151 16.9588C120.572 16.045 120.783 14.956 120.783 13.6918C120.778 12.437 120.57 11.3575 120.158 10.4531C119.75 9.54877 119.144 8.85511 118.339 8.37216C117.539 7.8892 116.55 7.64773 115.371 7.64773H112.26V19.8068ZM129.265 21.2273C128.322 21.2273 127.489 20.9882 126.765 20.5099C126.045 20.0317 125.481 19.3712 125.074 18.5284C124.667 17.6809 124.463 16.7031 124.463 15.5952C124.463 14.4777 124.667 13.4953 125.074 12.6477C125.481 11.7955 126.045 11.1326 126.765 10.6591C127.489 10.1809 128.322 9.94176 129.265 9.94176C130.207 9.94176 131.038 10.1809 131.757 10.6591C132.477 11.1373 133.041 11.8002 133.448 12.6477C133.86 13.4953 134.066 14.4777 134.066 15.5952C134.066 16.7031 133.862 17.6809 133.455 18.5284C133.048 19.3712 132.482 20.0317 131.757 20.5099C131.038 20.9882 130.207 21.2273 129.265 21.2273ZM129.265 20.0696C130.022 20.0696 130.664 19.866 131.189 19.4588C131.715 19.0516 132.113 18.5095 132.382 17.8324C132.657 17.1553 132.794 16.4096 132.794 15.5952C132.794 14.7808 132.657 14.0327 132.382 13.3509C132.113 12.669 131.715 12.1222 131.189 11.7102C130.664 11.2983 130.022 11.0923 129.265 11.0923C128.512 11.0923 127.87 11.2983 127.34 11.7102C126.814 12.1222 126.414 12.669 126.14 13.3509C125.87 14.0327 125.735 14.7808 125.735 15.5952C125.735 16.4096 125.87 17.1553 126.14 17.8324C126.414 18.5095 126.814 19.0516 127.34 19.4588C127.865 19.866 128.507 20.0696 129.265 20.0696ZM141.102 21.2273C140.127 21.2273 139.277 20.9834 138.553 20.4957C137.833 20.008 137.274 19.3404 136.876 18.4929C136.479 17.6454 136.28 16.6795 136.28 15.5952C136.28 14.5014 136.481 13.5284 136.884 12.6761C137.291 11.8239 137.854 11.1562 138.574 10.6733C139.294 10.1856 140.129 9.94176 141.081 9.94176C141.81 9.94176 142.471 10.0838 143.062 10.3679C143.654 10.6473 144.142 11.0426 144.526 11.554C144.914 12.0606 145.158 12.6525 145.257 13.3295H143.979C143.846 12.714 143.527 12.1884 143.02 11.7528C142.518 11.3125 141.879 11.0923 141.102 11.0923C140.406 11.0923 139.791 11.2817 139.256 11.6605C138.721 12.0346 138.302 12.5578 137.999 13.2301C137.7 13.8977 137.551 14.6719 137.551 15.5526C137.551 16.438 137.698 17.2216 137.991 17.9034C138.285 18.5805 138.697 19.1108 139.227 19.4943C139.762 19.8778 140.387 20.0696 141.102 20.0696C141.585 20.0696 142.026 19.9796 142.423 19.7997C142.826 19.6151 143.162 19.3546 143.432 19.0185C143.706 18.6823 143.891 18.2822 143.986 17.8182H145.264C145.17 18.4763 144.935 19.0634 144.561 19.5795C144.192 20.0909 143.711 20.4934 143.119 20.7869C142.532 21.0805 141.86 21.2273 141.102 21.2273ZM155.303 12.4844L154.146 12.8111C154.032 12.4844 153.871 12.1884 153.663 11.9233C153.454 11.6581 153.182 11.4474 152.846 11.2912C152.514 11.1349 152.103 11.0568 151.61 11.0568C150.871 11.0568 150.265 11.232 149.792 11.5824C149.318 11.9328 149.082 12.3849 149.082 12.9389C149.082 13.4077 149.243 13.7888 149.565 14.0824C149.891 14.3712 150.393 14.6009 151.07 14.7713L152.718 15.1761C153.632 15.3987 154.316 15.7514 154.771 16.2344C155.23 16.7173 155.46 17.3234 155.46 18.0526C155.46 18.6681 155.289 19.215 154.948 19.6932C154.607 20.1714 154.131 20.5478 153.521 20.8224C152.915 21.0923 152.211 21.2273 151.411 21.2273C150.346 21.2273 149.468 20.9882 148.776 20.5099C148.085 20.027 147.642 19.331 147.448 18.4219L148.663 18.1236C148.819 18.7723 149.124 19.2623 149.579 19.5938C150.038 19.9252 150.642 20.0909 151.39 20.0909C152.228 20.0909 152.898 19.9039 153.4 19.5298C153.902 19.151 154.153 18.6776 154.153 18.1094C154.153 17.669 154.006 17.2997 153.712 17.0014C153.419 16.6984 152.974 16.4759 152.377 16.3338L150.594 15.9077C149.647 15.6804 148.947 15.3205 148.492 14.8281C148.038 14.3357 147.81 13.7249 147.81 12.9957C147.81 12.3944 147.974 11.8665 148.3 11.4119C148.627 10.9527 149.077 10.5928 149.65 10.3324C150.223 10.072 150.876 9.94176 151.61 9.94176C152.609 9.94176 153.407 10.169 154.004 10.6236C154.605 11.0734 155.038 11.6937 155.303 12.4844Z" fill="currentColor"/>
</svg>
