<svg xmlns="http://www.w3.org/2000/svg" width="20" height="20" fill="none" viewBox="0 0 20 20">
  <path fill="#fff" d="M19.688.039a.507.507 0 0 0-.55.11l-8.704 8.703C9.863 3.878 5.631 0 .506 0A.506.506 0 0 0 0 .506v18.988c0 .009.003.016.004.024 0 .025.006.048.01.073.005.025.01.05.02.075.002.007.002.014.005.022.006.014.016.026.023.04a.512.512 0 0 0 .041.067c.015.02.031.036.048.053a.508.508 0 0 0 .054.05.545.545 0 0 0 .066.039c.014.007.026.018.041.024.006.003.012.002.019.004A.51.51 0 0 0 .506 20h18.988c.28 0 .506-.226.506-.506V.506a.505.505 0 0 0-.312-.467m-.7 1.687v7.768H11.22l7.769-7.768Zm0 12.515h-8.483v-3.736h8.484v3.736ZM1.012 18.274v-7.768H8.78L4.896 14.39 1.01 18.274Zm0-17.249c4.555.254 8.216 3.915 8.47 8.47H1.01v-8.47Zm4.6 14.08 3.883-3.884v7.768H1.726l3.884-3.884Zm4.894.148h8.484v3.736h-8.484v-3.736Z"/>
</svg>
